<svg enable-background="new 0 0 900 900" viewBox="0 0 900 900" xmlns="http://www.w3.org/2000/svg"><g id="BG"/><g id="Objects"><g id="Leaf_1_"><g><g><path d="m462.8 695.9c-.9 0-1.6-.3-1.9-.5-1.6-.9-6-3.2-4.4-34.1.1-2.9.4-5.9.7-8.7-3.2-7.1-7.5-13.7-11.8-16.5-5.6-3.7-12.7-1.9-20.2 0-4.4 1.1-8.9 2.3-13.1 2.2-12.8-.2-25.6-4.7-36-12.7-20.6-15.8-28.7-42.8-20.3-67.2 1.4-4.1 3.2-8 5.3-11.6-11.4-10.8-12.7-23.9-13-39.6-.9-47.4 16.4-93.2 31.5-127.8 16.8-38.4 36.6-75.8 59-111.1l3.6-5.7c5.3-8.3 10.6-16.7 15.3-25.4.8-8.2 2.4-16.2 4.5-24 .9-3.1 2.9-7 6.1-8.6 1.7-.8 3.5-.9 5.2-.1 1.1.5 1.8 1.7 1.5 2.9-2.6 11-7 21.4-12.3 31.3-3.2 33.1 4.6 70.7 23.7 116.2 5.2 12.4 11 25 16.6 37.1 14.6 31.7 29.6 64.4 36.9 99.1 2.3 11.2 4.6 25.8.9 39.6-1.8 6.8-5 12.9-9.2 17.7.4.5.8 1 1.2 1.5 5.9 7.9 9.2 18.3 9.8 30.8.9 19.2-5.7 36-17.5 45.2-14.3 11-40.9 11.5-56.9 1-1.4-.9-2.7-1.9-4-2.9 0 1.3 0 2.6.1 3.9.1 6.7-.6 13.5-1.3 20.1-.1 1.2-.3 2.4-.4 3.7 3 7 4.8 14.2 5 19.3l.7 17.2c.1 1.4.2 4.7-2.3 6.6-1.2.9-2.2 1.1-3 1.1zm-1.4-30.7c-.5 14.7.5 22.5 1.5 25 .1-.3.1-.9.1-1.7l-.7-17.2c-.2-1.8-.5-3.9-.9-6.1zm-23.9-36.3c3.7 0 7.3.8 10.6 3 3.7 2.4 7 6.6 9.9 11.5.5-5.1.9-10.2.8-15.2 0-2.9-.1-5.8-.1-8.8-8.3-8.8-13.1-20.7-14.7-36-.4-3.8-.8-7.7-1.3-11.6-1.6-14.3-3.3-29-3.3-42.8 0-21.8-.9-44.8-1.8-67-.9-22.3-1.8-45.3-1.8-67.2 0-16.5 0-35.3 7.1-51.8.5-1.1 1.6-1.7 2.8-1.5s2 1.2 2.1 2.4c1.3 40.6 4.5 82.8 7.6 123.7 1.7 22.7 3.5 46.2 4.9 68.9 1.7 27.6 2.9 54.7 3.4 80.8 2.1 2.1 4.4 3.9 6.9 5.6 14.1 9.3 38.4 8.9 51-.8 10.5-8.1 16.4-23.4 15.5-40.9-.5-11.5-3.5-20.9-8.8-28-.2-.3-.5-.6-.7-1-4.1 3.7-8.9 6.4-14.1 7.6-6.5 1.6-12.7.5-16.8-2.9-2.7-2.3-4.4-5.8-4.5-9.4-.1-3.1 1-5.9 3.2-7.8 1.8-1.7 4.3-2.7 7.5-3.1 8.5-1.2 17.6 2 24.7 8.3 3.6-4.2 6.3-9.5 7.9-15.4 3.4-12.8 1.3-26.6-1-37.2-7.2-34.1-22.1-66.6-36.5-98-5.6-12.2-11.4-24.7-16.6-37.3-17.5-41.6-25.6-76.8-24.7-108.1-3.3 5.6-6.8 11.1-10.3 16.5l-3.6 5.7c-22.2 35.2-41.9 72.3-58.6 110.5-14.9 34.1-31.9 79.2-31.1 125.6.3 14.5 1.3 25.9 10.7 35.3 4.9-7 11-12.7 18-16.5 13.3-7.3 29.6-7.4 41.5-.2 4.8 2.9 7.7 6.4 8.6 10.4 2.3 9.5-7 17.3-16.6 20.5-16.8 5.6-35.1 3.8-47.9-4.7-.9-.6-1.7-1.1-2.5-1.7-1.8 3.1-3.3 6.5-4.5 10-7.7 22.3-.3 47 18.6 61.5 9.5 7.3 21.2 11.4 33 11.6 3.7 0 7.6-1 11.8-2.1 4.5-1.2 9.1-2.4 13.7-2.4zm5.8-269.8c-2.4 11.8-2.4 24.2-2.4 35.6 0 21.9.9 44.8 1.8 67s1.8 45.2 1.8 67.2c0 13.5 1.7 28.1 3.3 42.2.5 4 .9 7.9 1.3 11.7 1.2 11.4 4.3 20.8 9.5 28.2-.6-24.1-1.7-49-3.3-74.3-1.4-22.7-3.2-46.1-4.9-68.8-2.8-35.9-5.6-72.8-7.1-108.8zm63.3 182.3c-1 0-1.9.1-2.9.2-2.2.3-3.8.9-4.8 1.8-1.4 1.2-1.5 3-1.5 3.9 0 2.2 1.1 4.3 2.6 5.6 2.8 2.3 7.4 3 12.3 1.8 4.3-1 8.3-3.2 11.8-6.3-5-4.4-11.4-7-17.5-7zm-138.8 4.4c.8.6 1.7 1.2 2.6 1.8 11.5 7.6 28.2 9.2 43.5 4.1 6.2-2.1 14.9-7.7 13.3-14.5-.8-3.2-3.9-5.7-6.3-7.2-10.4-6.3-24.7-6.2-36.4.3-6.5 3.6-12.2 8.9-16.7 15.5zm100.8-334.8c-.7 1-1.3 2.3-1.7 3.7-.5 1.8-1 3.7-1.4 5.5 1.2-3.1 2.2-6.1 3.1-9.2z"/></g></g></g></g></svg>